<svg xmlns="http://www.w3.org/2000/svg" xmlns:xlink="http://www.w3.org/1999/xlink" viewBox="0 0 1400 700"><path fill="#060" d="M0 0h1400v700H0z"/><path fill="#fff" d="M0 0h1400v500H0z"/><path fill="#c00" d="M0 0h1400v200H0z"/><g fill="#f8c300"><path d="M672 340.7a12.5 12.5 0 0 1 23.3 5.9v50h9.4v-50a12.5 12.5 0 0 1 23.3-5.9 29.5 29.5 0 1 0-56 0"/><path fill="#fff" d="M678.7 327.7a20 20 0 0 1 21.3 9.5 20 20 0 0 1 21.3-9.5 21.5 21.5 0 0 0-42.6 0"/><path id="a" d="M695.3 376.6a38 38 0 0 1-63.8 24.3 39.5 39.5 0 0 1-59.8 17.5c3.7 36.4 58.3 29 62.3-6.4 17.2 30.1 55 21.5 66-15.4z"/><use xlink:href="#a" transform="matrix(-1 0 0 1 1400 0)"/><path id="b" d="M658.8 441.3c-7.6 16.5-22.8 19.3-36.1 6 0 0 5.3-3.8 11-4.8a18 18 0 0 1 4.3-14.3 22 22 0 0 1 9 11.8c8-1 11.8 1.3 11.8 1.3"/><use xlink:href="#b" transform="rotate(9.4 700 804)"/><use xlink:href="#b" transform="rotate(18.7 700 804)"/><path fill="none" stroke="#f8c300" stroke-width="16" d="M603 478a340 340 0 0 1 194 0"/><g transform="translate(700 380)"><g transform="translate(0 -140)"><path id="c" d="m0-513674 301930 929245-790463-574305h977066l-790463 574305z" transform="scale(.00005)"/></g><g id="d"><use xlink:href="#c" transform="translate(-70 -121.2)"/><use xlink:href="#c" transform="translate(-121.2 -70)"/><use xlink:href="#c" transform="translate(-140)"/></g><use xlink:href="#d" transform="scale(-1 1)"/></g></g></svg>